<svg xmlns="http://www.w3.org/2000/svg" viewBox="0 0 280 52" fill="none">
  <defs>
    <linearGradient id="gradOrange" x1="0%" y1="0%" x2="100%" y2="100%">
      <stop offset="0%" stop-color="#f97316" />
      <stop offset="100%" stop-color="#ea580c" />
    </linearGradient>
    <linearGradient id="gradDark" x1="0%" y1="0%" x2="100%" y2="100%">
      <stop offset="0%" stop-color="#334155" />
      <stop offset="100%" stop-color="#0f172a" />
    </linearGradient>
    <filter id="shadow" x="-10%" y="-10%" width="120%" height="120%">
      <feDropShadow dx="1" dy="2" stdDeviation="2" flood-color="#000000" flood-opacity="0.12"/>
    </filter>
  </defs>

  <!-- High-end architectural monogram DD -->
  <g transform="translate(4, 4)" filter="url(#shadow)">
    <!-- First D (Orange/Copper) -->
    <path d="M 0 0 L 16 0 C 28 0, 32 8, 32 22 C 32 36, 28 44, 16 44 L 0 44 Z M 8 8 L 8 36 L 14 36 C 20 36, 23 31, 23 22 C 23 13, 20 8, 14 8 Z" fill="url(#gradOrange)" />
    
    <!-- Second D (Dark/Slate) overlapping -->
    <path d="M 18 6 L 30 6 C 40 6, 44 13, 44 25 C 44 37, 40 44, 30 44 L 18 44 L 18 36 L 28 36 C 33 36, 36 32, 36 25 C 36 18, 33 14, 28 14 L 18 14 Z" fill="url(#gradDark)" />
    
    <!-- Stylized architectural swoosh / structural beam -->
    <path d="M -4 44 L 40 44 L 44 40 L -4 40 Z" fill="#0f172a" opacity="0.8" />
    <path d="M 12 -4 L 46 -4 L 42 0 L 12 0 Z" fill="#ea580c" opacity="0.9" />
  </g>
  
  <!-- Typography -->
  <text x="64" y="24" font-family="'Inter', -apple-system, sans-serif" font-weight="800" font-size="18" fill="#0f172a" letter-spacing="1">DYNAMIC DESIGN</text>
  <text x="66" y="42" font-family="'Inter', -apple-system, sans-serif" font-weight="600" font-size="10.5" fill="#ea580c" letter-spacing="3" text-transform="uppercase">&amp; CONSTRUCTIONS</text>
</svg>
